<mxfile host="app.diagrams.net" modified="2021-05-06T09:06:50.559Z" agent="5.0 (Macintosh; Intel Mac OS X 10_14_6) AppleWebKit/537.36 (KHTML, like Gecko) Chrome/90.0.4430.85 Safari/537.36" etag="Vg_G_MEPNlnyjV6oWVce" version="14.6.10" type="github">
  <diagram id="miXx2MlETBV36p1i_nEh" name="Page-1">
    <mxGraphModel dx="2152" dy="2108" grid="1" gridSize="10" guides="1" tooltips="1" connect="1" arrows="1" fold="1" page="1" pageScale="1" pageWidth="827" pageHeight="1169" math="0" shadow="0">
      <root>
        <mxCell id="0" />
        <mxCell id="1" parent="0" />
        <mxCell id="IGWuU-WvH9Zw8HdTo1WG-9" style="edgeStyle=orthogonalEdgeStyle;rounded=0;orthogonalLoop=1;jettySize=auto;html=1;fontSize=14;" edge="1" parent="1" source="IGWuU-WvH9Zw8HdTo1WG-4">
          <mxGeometry relative="1" as="geometry">
            <mxPoint x="227.5" y="140" as="targetPoint" />
          </mxGeometry>
        </mxCell>
        <mxCell id="IGWuU-WvH9Zw8HdTo1WG-4" value="&lt;font style=&quot;font-size: 14px&quot;&gt;新建文档&lt;/font&gt;" style="strokeWidth=2;html=1;shape=mxgraph.flowchart.terminator;whiteSpace=wrap;fontSize=14;" vertex="1" parent="1">
          <mxGeometry x="162.5" y="60" width="132.5" height="50" as="geometry" />
        </mxCell>
        <mxCell id="IGWuU-WvH9Zw8HdTo1WG-14" style="edgeStyle=orthogonalEdgeStyle;rounded=0;orthogonalLoop=1;jettySize=auto;html=1;exitX=0.5;exitY=1;exitDx=0;exitDy=0;exitPerimeter=0;entryX=0.5;entryY=0;entryDx=0;entryDy=0;fontSize=14;" edge="1" parent="1" source="IGWuU-WvH9Zw8HdTo1WG-5" target="IGWuU-WvH9Zw8HdTo1WG-13">
          <mxGeometry relative="1" as="geometry" />
        </mxCell>
        <mxCell id="IGWuU-WvH9Zw8HdTo1WG-5" value="&lt;font style=&quot;font-size: 14px&quot;&gt;新建表格&lt;/font&gt;" style="strokeWidth=2;html=1;shape=mxgraph.flowchart.terminator;whiteSpace=wrap;fontSize=14;" vertex="1" parent="1">
          <mxGeometry x="575" y="60" width="120" height="50" as="geometry" />
        </mxCell>
        <mxCell id="IGWuU-WvH9Zw8HdTo1WG-6" value="&lt;font style=&quot;font-size: 14px&quot;&gt;用户&lt;/font&gt;" style="text;html=1;resizable=0;autosize=1;align=center;verticalAlign=middle;points=[];fillColor=none;strokeColor=none;rounded=0;fontSize=14;" vertex="1" parent="1">
          <mxGeometry x="207.5" y="30" width="40" height="20" as="geometry" />
        </mxCell>
        <mxCell id="IGWuU-WvH9Zw8HdTo1WG-7" value="&lt;font style=&quot;font-size: 14px&quot;&gt;用户&lt;/font&gt;" style="text;html=1;resizable=0;autosize=1;align=center;verticalAlign=middle;points=[];fillColor=none;strokeColor=none;rounded=0;fontSize=14;" vertex="1" parent="1">
          <mxGeometry x="620" y="20" width="40" height="20" as="geometry" />
        </mxCell>
        <mxCell id="IGWuU-WvH9Zw8HdTo1WG-39" style="edgeStyle=orthogonalEdgeStyle;rounded=0;orthogonalLoop=1;jettySize=auto;html=1;exitX=0.5;exitY=1;exitDx=0;exitDy=0;entryX=0.5;entryY=0;entryDx=0;entryDy=0;entryPerimeter=0;fontSize=14;" edge="1" parent="1" source="IGWuU-WvH9Zw8HdTo1WG-13" target="IGWuU-WvH9Zw8HdTo1WG-16">
          <mxGeometry relative="1" as="geometry" />
        </mxCell>
        <mxCell id="IGWuU-WvH9Zw8HdTo1WG-13" value="&lt;font style=&quot;font-size: 14px&quot;&gt;点击新建表格&lt;/font&gt;" style="rounded=0;whiteSpace=wrap;html=1;absoluteArcSize=1;arcSize=14;strokeWidth=2;fontSize=14;" vertex="1" parent="1">
          <mxGeometry x="570" y="160" width="130" height="40" as="geometry" />
        </mxCell>
        <mxCell id="IGWuU-WvH9Zw8HdTo1WG-16" value="&lt;span style=&quot;font-size: 14px&quot;&gt;路由跳转至新建表格页&lt;/span&gt;" style="strokeWidth=2;html=1;shape=mxgraph.flowchart.terminator;whiteSpace=wrap;fontSize=14;" vertex="1" parent="1">
          <mxGeometry x="570" y="230" width="130" height="60" as="geometry" />
        </mxCell>
        <mxCell id="IGWuU-WvH9Zw8HdTo1WG-20" style="edgeStyle=orthogonalEdgeStyle;rounded=0;orthogonalLoop=1;jettySize=auto;html=1;exitX=0.5;exitY=1;exitDx=0;exitDy=0;fontSize=14;" edge="1" parent="1" source="IGWuU-WvH9Zw8HdTo1WG-19">
          <mxGeometry relative="1" as="geometry">
            <mxPoint x="227.5" y="210" as="targetPoint" />
          </mxGeometry>
        </mxCell>
        <mxCell id="IGWuU-WvH9Zw8HdTo1WG-19" value="&lt;font style=&quot;font-size: 14px&quot;&gt;点击新建文档&lt;/font&gt;" style="rounded=0;whiteSpace=wrap;html=1;absoluteArcSize=1;arcSize=14;strokeWidth=2;fontSize=14;" vertex="1" parent="1">
          <mxGeometry x="162.5" y="140" width="130" height="40" as="geometry" />
        </mxCell>
        <mxCell id="IGWuU-WvH9Zw8HdTo1WG-24" style="edgeStyle=orthogonalEdgeStyle;rounded=0;orthogonalLoop=1;jettySize=auto;html=1;exitX=1;exitY=0.5;exitDx=0;exitDy=0;exitPerimeter=0;entryX=0.5;entryY=0;entryDx=0;entryDy=0;fontSize=14;" edge="1" parent="1" source="IGWuU-WvH9Zw8HdTo1WG-21" target="IGWuU-WvH9Zw8HdTo1WG-23">
          <mxGeometry relative="1" as="geometry" />
        </mxCell>
        <mxCell id="IGWuU-WvH9Zw8HdTo1WG-28" style="edgeStyle=orthogonalEdgeStyle;rounded=0;orthogonalLoop=1;jettySize=auto;html=1;exitX=0;exitY=0.5;exitDx=0;exitDy=0;exitPerimeter=0;entryX=0.5;entryY=0;entryDx=0;entryDy=0;fontSize=14;" edge="1" parent="1" source="IGWuU-WvH9Zw8HdTo1WG-21" target="IGWuU-WvH9Zw8HdTo1WG-25">
          <mxGeometry relative="1" as="geometry" />
        </mxCell>
        <mxCell id="IGWuU-WvH9Zw8HdTo1WG-21" value="&lt;font style=&quot;font-size: 14px&quot;&gt;是否从模板创建&lt;/font&gt;" style="strokeWidth=2;html=1;shape=mxgraph.flowchart.decision;whiteSpace=wrap;rounded=0;fontSize=14;" vertex="1" parent="1">
          <mxGeometry x="150" y="210" width="157.5" height="60" as="geometry" />
        </mxCell>
        <mxCell id="IGWuU-WvH9Zw8HdTo1WG-43" style="edgeStyle=orthogonalEdgeStyle;rounded=0;orthogonalLoop=1;jettySize=auto;html=1;exitX=0.5;exitY=1;exitDx=0;exitDy=0;entryX=0.5;entryY=0;entryDx=0;entryDy=0;entryPerimeter=0;fontSize=14;" edge="1" parent="1" source="IGWuU-WvH9Zw8HdTo1WG-23" target="IGWuU-WvH9Zw8HdTo1WG-42">
          <mxGeometry relative="1" as="geometry" />
        </mxCell>
        <mxCell id="IGWuU-WvH9Zw8HdTo1WG-23" value="&lt;font style=&quot;font-size: 14px&quot;&gt;点击新建文档&lt;/font&gt;" style="rounded=0;whiteSpace=wrap;html=1;absoluteArcSize=1;arcSize=14;strokeWidth=2;fontSize=14;" vertex="1" parent="1">
          <mxGeometry x="390" y="300" width="130" height="40" as="geometry" />
        </mxCell>
        <mxCell id="IGWuU-WvH9Zw8HdTo1WG-29" style="edgeStyle=orthogonalEdgeStyle;rounded=0;orthogonalLoop=1;jettySize=auto;html=1;exitX=0.5;exitY=1;exitDx=0;exitDy=0;fontSize=14;" edge="1" parent="1" source="IGWuU-WvH9Zw8HdTo1WG-25">
          <mxGeometry relative="1" as="geometry">
            <mxPoint x="115" y="370" as="targetPoint" />
          </mxGeometry>
        </mxCell>
        <mxCell id="IGWuU-WvH9Zw8HdTo1WG-31" style="edgeStyle=orthogonalEdgeStyle;rounded=0;orthogonalLoop=1;jettySize=auto;html=1;exitX=1;exitY=0.5;exitDx=0;exitDy=0;dashed=1;fontSize=14;" edge="1" parent="1" source="IGWuU-WvH9Zw8HdTo1WG-25">
          <mxGeometry relative="1" as="geometry">
            <mxPoint x="320" y="320" as="targetPoint" />
          </mxGeometry>
        </mxCell>
        <mxCell id="IGWuU-WvH9Zw8HdTo1WG-25" value="&lt;span style=&quot;font-size: 14px&quot;&gt;从模板新建&lt;/span&gt;" style="rounded=0;whiteSpace=wrap;html=1;absoluteArcSize=1;arcSize=14;strokeWidth=2;fontSize=14;" vertex="1" parent="1">
          <mxGeometry x="50" y="300" width="130" height="40" as="geometry" />
        </mxCell>
        <mxCell id="IGWuU-WvH9Zw8HdTo1WG-33" style="edgeStyle=orthogonalEdgeStyle;rounded=0;orthogonalLoop=1;jettySize=auto;html=1;exitX=1;exitY=0.5;exitDx=0;exitDy=0;dashed=1;fontSize=14;" edge="1" parent="1" source="IGWuU-WvH9Zw8HdTo1WG-30">
          <mxGeometry relative="1" as="geometry">
            <mxPoint x="180" y="390" as="targetPoint" />
          </mxGeometry>
        </mxCell>
        <mxCell id="IGWuU-WvH9Zw8HdTo1WG-34" style="edgeStyle=orthogonalEdgeStyle;rounded=0;orthogonalLoop=1;jettySize=auto;html=1;dashed=1;fontSize=14;" edge="1" parent="1" target="IGWuU-WvH9Zw8HdTo1WG-30">
          <mxGeometry relative="1" as="geometry">
            <mxPoint x="320" y="390" as="sourcePoint" />
          </mxGeometry>
        </mxCell>
        <mxCell id="IGWuU-WvH9Zw8HdTo1WG-41" style="edgeStyle=orthogonalEdgeStyle;rounded=0;orthogonalLoop=1;jettySize=auto;html=1;exitX=0.5;exitY=1;exitDx=0;exitDy=0;entryX=0.5;entryY=0;entryDx=0;entryDy=0;entryPerimeter=0;fontSize=14;" edge="1" parent="1" source="IGWuU-WvH9Zw8HdTo1WG-30" target="IGWuU-WvH9Zw8HdTo1WG-40">
          <mxGeometry relative="1" as="geometry" />
        </mxCell>
        <mxCell id="IGWuU-WvH9Zw8HdTo1WG-30" value="选择模板" style="rounded=0;whiteSpace=wrap;html=1;absoluteArcSize=1;arcSize=14;strokeWidth=2;fontSize=14;" vertex="1" parent="1">
          <mxGeometry x="50" y="370" width="130" height="40" as="geometry" />
        </mxCell>
        <mxCell id="IGWuU-WvH9Zw8HdTo1WG-32" value="从服务器中获取模板" style="text;html=1;resizable=0;autosize=1;align=center;verticalAlign=middle;points=[];fillColor=none;strokeColor=none;rounded=0;fontSize=14;" vertex="1" parent="1">
          <mxGeometry x="177.5" y="300" width="140" height="20" as="geometry" />
        </mxCell>
        <mxCell id="IGWuU-WvH9Zw8HdTo1WG-35" value="服务器返回模板列表" style="text;html=1;resizable=0;autosize=1;align=center;verticalAlign=middle;points=[];fillColor=none;strokeColor=none;rounded=0;fontSize=14;" vertex="1" parent="1">
          <mxGeometry x="177.5" y="370" width="140" height="20" as="geometry" />
        </mxCell>
        <mxCell id="IGWuU-WvH9Zw8HdTo1WG-40" value="&lt;span style=&quot;font-size: 14px&quot;&gt;跳转至新建文档页&lt;/span&gt;" style="strokeWidth=2;html=1;shape=mxgraph.flowchart.terminator;whiteSpace=wrap;" vertex="1" parent="1">
          <mxGeometry x="48.75" y="450" width="132.5" height="50" as="geometry" />
        </mxCell>
        <mxCell id="IGWuU-WvH9Zw8HdTo1WG-42" value="&lt;span style=&quot;font-size: 14px&quot;&gt;跳转至新建文档页&lt;/span&gt;" style="strokeWidth=2;html=1;shape=mxgraph.flowchart.terminator;whiteSpace=wrap;fontSize=14;" vertex="1" parent="1">
          <mxGeometry x="388.75" y="380" width="132.5" height="50" as="geometry" />
        </mxCell>
        <mxCell id="IGWuU-WvH9Zw8HdTo1WG-51" style="edgeStyle=orthogonalEdgeStyle;rounded=0;orthogonalLoop=1;jettySize=auto;html=1;exitX=0.5;exitY=1;exitDx=0;exitDy=0;exitPerimeter=0;entryX=0.5;entryY=0;entryDx=0;entryDy=0;" edge="1" parent="1" source="IGWuU-WvH9Zw8HdTo1WG-45" target="IGWuU-WvH9Zw8HdTo1WG-50">
          <mxGeometry relative="1" as="geometry" />
        </mxCell>
        <mxCell id="IGWuU-WvH9Zw8HdTo1WG-45" value="&lt;span style=&quot;font-size: 14px&quot;&gt;文档/表格查看编辑&lt;/span&gt;" style="strokeWidth=2;html=1;shape=mxgraph.flowchart.terminator;whiteSpace=wrap;" vertex="1" parent="1">
          <mxGeometry x="351.25" y="520" width="132.5" height="50" as="geometry" />
        </mxCell>
        <mxCell id="IGWuU-WvH9Zw8HdTo1WG-52" style="edgeStyle=orthogonalEdgeStyle;rounded=0;orthogonalLoop=1;jettySize=auto;html=1;dashed=1;entryX=1;entryY=0.5;entryDx=0;entryDy=0;" edge="1" parent="1" target="IGWuU-WvH9Zw8HdTo1WG-50">
          <mxGeometry relative="1" as="geometry">
            <mxPoint x="661.25" y="620" as="sourcePoint" />
          </mxGeometry>
        </mxCell>
        <mxCell id="IGWuU-WvH9Zw8HdTo1WG-56" style="edgeStyle=orthogonalEdgeStyle;rounded=0;orthogonalLoop=1;jettySize=auto;html=1;exitX=0.5;exitY=1;exitDx=0;exitDy=0;entryX=0.5;entryY=0;entryDx=0;entryDy=0;entryPerimeter=0;" edge="1" parent="1" source="IGWuU-WvH9Zw8HdTo1WG-50" target="IGWuU-WvH9Zw8HdTo1WG-55">
          <mxGeometry relative="1" as="geometry" />
        </mxCell>
        <mxCell id="IGWuU-WvH9Zw8HdTo1WG-50" value="列表获取渲染" style="rounded=0;whiteSpace=wrap;html=1;absoluteArcSize=1;arcSize=14;strokeWidth=2;" vertex="1" parent="1">
          <mxGeometry x="352.5" y="600" width="130" height="40" as="geometry" />
        </mxCell>
        <mxCell id="IGWuU-WvH9Zw8HdTo1WG-53" value="从服务器获取文件列表" style="text;html=1;resizable=0;autosize=1;align=center;verticalAlign=middle;points=[];fillColor=none;strokeColor=none;rounded=0;" vertex="1" parent="1">
          <mxGeometry x="508.75" y="590" width="140" height="20" as="geometry" />
        </mxCell>
        <mxCell id="IGWuU-WvH9Zw8HdTo1WG-59" style="edgeStyle=orthogonalEdgeStyle;rounded=0;orthogonalLoop=1;jettySize=auto;html=1;exitX=0;exitY=0.5;exitDx=0;exitDy=0;exitPerimeter=0;entryX=0.5;entryY=0;entryDx=0;entryDy=0;fontSize=14;" edge="1" parent="1" source="IGWuU-WvH9Zw8HdTo1WG-55" target="IGWuU-WvH9Zw8HdTo1WG-57">
          <mxGeometry relative="1" as="geometry" />
        </mxCell>
        <mxCell id="IGWuU-WvH9Zw8HdTo1WG-60" style="edgeStyle=orthogonalEdgeStyle;rounded=0;orthogonalLoop=1;jettySize=auto;html=1;exitX=1;exitY=0.5;exitDx=0;exitDy=0;exitPerimeter=0;entryX=0.5;entryY=0;entryDx=0;entryDy=0;fontSize=14;" edge="1" parent="1" source="IGWuU-WvH9Zw8HdTo1WG-55" target="IGWuU-WvH9Zw8HdTo1WG-58">
          <mxGeometry relative="1" as="geometry" />
        </mxCell>
        <mxCell id="IGWuU-WvH9Zw8HdTo1WG-55" value="&lt;span style=&quot;font-size: 14px&quot;&gt;用户点击操作&lt;/span&gt;" style="strokeWidth=2;html=1;shape=mxgraph.flowchart.decision;whiteSpace=wrap;rounded=0;" vertex="1" parent="1">
          <mxGeometry x="338.75" y="660" width="157.5" height="60" as="geometry" />
        </mxCell>
        <mxCell id="IGWuU-WvH9Zw8HdTo1WG-61" style="edgeStyle=orthogonalEdgeStyle;rounded=0;orthogonalLoop=1;jettySize=auto;html=1;exitX=0.5;exitY=1;exitDx=0;exitDy=0;fontSize=14;" edge="1" parent="1" source="IGWuU-WvH9Zw8HdTo1WG-57">
          <mxGeometry relative="1" as="geometry">
            <mxPoint x="246.96428571428578" y="810" as="targetPoint" />
          </mxGeometry>
        </mxCell>
        <mxCell id="IGWuU-WvH9Zw8HdTo1WG-57" value="查看并编辑" style="rounded=0;whiteSpace=wrap;html=1;absoluteArcSize=1;arcSize=14;strokeWidth=2;fontSize=14;" vertex="1" parent="1">
          <mxGeometry x="181.25" y="730" width="130" height="40" as="geometry" />
        </mxCell>
        <mxCell id="IGWuU-WvH9Zw8HdTo1WG-74" style="edgeStyle=orthogonalEdgeStyle;rounded=0;orthogonalLoop=1;jettySize=auto;html=1;exitX=0.5;exitY=1;exitDx=0;exitDy=0;fontSize=14;" edge="1" parent="1" source="IGWuU-WvH9Zw8HdTo1WG-58">
          <mxGeometry relative="1" as="geometry">
            <mxPoint x="616" y="810" as="targetPoint" />
          </mxGeometry>
        </mxCell>
        <mxCell id="IGWuU-WvH9Zw8HdTo1WG-76" style="edgeStyle=orthogonalEdgeStyle;rounded=0;orthogonalLoop=1;jettySize=auto;html=1;exitX=1;exitY=0.5;exitDx=0;exitDy=0;fontSize=14;dashed=1;" edge="1" parent="1" source="IGWuU-WvH9Zw8HdTo1WG-58">
          <mxGeometry relative="1" as="geometry">
            <mxPoint x="800" y="750" as="targetPoint" />
          </mxGeometry>
        </mxCell>
        <mxCell id="IGWuU-WvH9Zw8HdTo1WG-58" value="删除" style="rounded=0;whiteSpace=wrap;html=1;absoluteArcSize=1;arcSize=14;strokeWidth=2;fontSize=14;" vertex="1" parent="1">
          <mxGeometry x="550.25" y="730" width="130" height="40" as="geometry" />
        </mxCell>
        <mxCell id="IGWuU-WvH9Zw8HdTo1WG-72" style="edgeStyle=orthogonalEdgeStyle;rounded=0;orthogonalLoop=1;jettySize=auto;html=1;exitX=0;exitY=0.5;exitDx=0;exitDy=0;exitPerimeter=0;entryX=0.5;entryY=0;entryDx=0;entryDy=0;entryPerimeter=0;fontSize=14;" edge="1" parent="1" source="IGWuU-WvH9Zw8HdTo1WG-63" target="IGWuU-WvH9Zw8HdTo1WG-67">
          <mxGeometry relative="1" as="geometry" />
        </mxCell>
        <mxCell id="IGWuU-WvH9Zw8HdTo1WG-73" style="edgeStyle=orthogonalEdgeStyle;rounded=0;orthogonalLoop=1;jettySize=auto;html=1;exitX=1;exitY=0.5;exitDx=0;exitDy=0;exitPerimeter=0;fontSize=14;" edge="1" parent="1" source="IGWuU-WvH9Zw8HdTo1WG-63" target="IGWuU-WvH9Zw8HdTo1WG-71">
          <mxGeometry relative="1" as="geometry" />
        </mxCell>
        <mxCell id="IGWuU-WvH9Zw8HdTo1WG-63" value="&lt;span style=&quot;font-size: 14px&quot;&gt;判断文件类型&lt;/span&gt;" style="strokeWidth=2;html=1;shape=mxgraph.flowchart.decision;whiteSpace=wrap;rounded=0;" vertex="1" parent="1">
          <mxGeometry x="167.5" y="810" width="157.5" height="60" as="geometry" />
        </mxCell>
        <mxCell id="IGWuU-WvH9Zw8HdTo1WG-67" value="&lt;span style=&quot;font-size: 14px&quot;&gt;跳转至文档页&lt;/span&gt;" style="strokeWidth=2;html=1;shape=mxgraph.flowchart.terminator;whiteSpace=wrap;" vertex="1" parent="1">
          <mxGeometry x="40" y="880" width="132.5" height="50" as="geometry" />
        </mxCell>
        <mxCell id="IGWuU-WvH9Zw8HdTo1WG-71" value="&lt;span style=&quot;font-size: 14px&quot;&gt;跳转至表格页&lt;/span&gt;" style="strokeWidth=2;html=1;shape=mxgraph.flowchart.terminator;whiteSpace=wrap;" vertex="1" parent="1">
          <mxGeometry x="320" y="880" width="132.5" height="50" as="geometry" />
        </mxCell>
        <mxCell id="IGWuU-WvH9Zw8HdTo1WG-75" value="&lt;span style=&quot;font-size: 14px&quot;&gt;重新获取文件列表&lt;/span&gt;" style="strokeWidth=2;html=1;shape=mxgraph.flowchart.terminator;whiteSpace=wrap;" vertex="1" parent="1">
          <mxGeometry x="534.13" y="810" width="162.25" height="50" as="geometry" />
        </mxCell>
        <mxCell id="IGWuU-WvH9Zw8HdTo1WG-77" value="发起删除请求" style="text;html=1;align=center;verticalAlign=middle;resizable=0;points=[];autosize=1;strokeColor=none;fontSize=14;" vertex="1" parent="1">
          <mxGeometry x="685" y="720" width="100" height="20" as="geometry" />
        </mxCell>
        <mxCell id="IGWuU-WvH9Zw8HdTo1WG-78" value="点击查看编辑" style="text;html=1;align=center;verticalAlign=middle;resizable=0;points=[];autosize=1;strokeColor=none;fontSize=14;" vertex="1" parent="1">
          <mxGeometry x="230" y="670" width="100" height="20" as="geometry" />
        </mxCell>
        <mxCell id="IGWuU-WvH9Zw8HdTo1WG-79" value="点击删除" style="text;html=1;align=center;verticalAlign=middle;resizable=0;points=[];autosize=1;strokeColor=none;fontSize=14;" vertex="1" parent="1">
          <mxGeometry x="515" y="670" width="70" height="20" as="geometry" />
        </mxCell>
        <mxCell id="IGWuU-WvH9Zw8HdTo1WG-81" value="文档" style="text;html=1;align=center;verticalAlign=middle;resizable=0;points=[];autosize=1;strokeColor=none;fontSize=14;" vertex="1" parent="1">
          <mxGeometry x="112.5" y="810" width="40" height="20" as="geometry" />
        </mxCell>
        <mxCell id="IGWuU-WvH9Zw8HdTo1WG-82" value="表格" style="text;html=1;align=center;verticalAlign=middle;resizable=0;points=[];autosize=1;strokeColor=none;fontSize=14;" vertex="1" parent="1">
          <mxGeometry x="340" y="810" width="40" height="20" as="geometry" />
        </mxCell>
      </root>
    </mxGraphModel>
  </diagram>
</mxfile>
